<?xml version="1.0" encoding="UTF-8" standalone="no"?>
<!DOCTYPE svg PUBLIC "-//W3C//DTD SVG 1.1//EN" "http://www.w3.org/Graphics/SVG/1.1/DTD/svg11.dtd">
<svg version="1.1" xmlns="http://www.w3.org/2000/svg" xmlns:xlink="http://www.w3.org/1999/xlink" preserveAspectRatio="xMidYMid meet" viewBox="204.97029702970303 147.5445544554456 40 35.53" width="40" height="35.53"><defs><path d="M234.97 147.54C241.64 147.54 244.97 150.51 244.97 156.43C244.97 167.09 244.97 173.01 244.97 174.19C244.97 180.11 241.64 183.07 234.97 183.07C222.97 183.07 216.3 183.07 214.97 183.07C208.3 183.07 204.97 180.11 204.97 174.19C204.97 163.53 204.97 157.61 204.97 156.43C204.97 150.51 208.3 147.54 214.97 147.54C226.97 147.54 233.64 147.54 234.97 147.54Z" id="a1UTYFFtpN"></path><path d="M226.23 172.26C221.86 172.84 217.79 170.16 217.14 166.28C216.5 162.39 219.51 158.78 223.88 158.2C224.66 158.1 225.45 158.1 226.23 158.2C229.72 158.66 232.45 161.09 232.97 164.19C233.62 168.07 230.6 171.69 226.23 172.26Z" id="d7MBnPm4tQ"></path></defs><g><g><g><use xlink:href="#a1UTYFFtpN" opacity="1" fill="#ff1515" fill-opacity="0"></use><g><use xlink:href="#a1UTYFFtpN" opacity="1" fill-opacity="0" stroke="#014f7e" stroke-width="3" stroke-opacity="1"></use></g></g><g><use xlink:href="#d7MBnPm4tQ" opacity="1" fill="#ff1515" fill-opacity="0"></use><g><use xlink:href="#d7MBnPm4tQ" opacity="1" fill-opacity="0" stroke="#014f7e" stroke-width="3" stroke-opacity="1"></use></g></g></g></g></svg>